<?xml version="1.0" encoding="UTF-8"?>
<svg id="Layer_2" data-name="Layer 2" xmlns="http://www.w3.org/2000/svg" xmlns:xlink="http://www.w3.org/1999/xlink" viewBox="0 0 1044.89 187.5">
  <defs>
    <style>
      .cls-1 {
        fill: url(#linear-gradient);
      }

      .cls-2 {
        fill: #fdc800;
      }

      .cls-3 {
        fill: #fff;
      }

      .cls-4 {
        fill: #e95052;
      }

      .cls-5 {
        fill: #55b68c;
      }
    </style>
    <linearGradient id="linear-gradient" x1="981.4" y1="-854.85" x2="1044.89" y2="-854.85" gradientTransform="translate(0 921.89)" gradientUnits="userSpaceOnUse">
      <stop offset="0" stop-color="#fff"/>
      <stop offset="1" stop-color="#1d1d1b"/>
    </linearGradient>
  </defs>
  <g id="Layer_1-2" data-name="Layer 1">
    <g>
      <g>
        <path class="cls-4" d="M1003.53,83.69c4.44,0,8.06,3.61,8.06,8.06s-3.61,8.06-8.06,8.06v33.3c22.8,0,41.36-18.55,41.36-41.36,0-9.25-3.06-17.81-8.21-24.71-7.55,10.1-19.6,16.65-33.15,16.65Z"/>
        <path class="cls-5" d="M1036.68,67.04c5.16-6.9,8.21-15.45,8.21-24.71,0-22.8-18.55-41.36-41.36-41.36v33.3c4.44,0,8.06,3.61,8.06,8.06s-3.61,8.06-8.06,8.06c13.55,0,25.6,6.55,33.15,16.65Z"/>
        <path class="cls-1" d="M1036.68,67.04c-7.55-10.1-19.6-16.65-33.15-16.65h-22.13v33.3h22.13c13.55,0,25.6-6.55,33.15-16.65Z"/>
        <path class="cls-2" d="M1036.68,67.04c-7.55-10.1-19.6-16.65-33.15-16.65h-22.13v33.3h22.13c13.55,0,25.6-6.55,33.15-16.65Z"/>
      </g>
      <g>
        <path class="cls-3" d="M0,184.93V.01h30.51v184.91H0Z"/>
        <path class="cls-3" d="M191.48,108.74v76.2h-30.51v-14.18c-13.57,8.99-34.41,16.73-55.18,16.73-38.35,0-52.23-20.31-52.23-40.7s15.25-40.77,52.23-40.77c20.77,0,41.61,7.82,55.18,16.81v-14.08c0-25.8-3.88-37.59-35.61-37.59s-56.4,15.77-56.4,15.77l-13.92-20.55s31.33-20.23,68.15-20.23c53.35,0,68.29,24.86,68.29,62.59ZM160.97,144.13c-11.8-9.2-29.18-17.75-47.56-17.75-21.22,0-29.33,9.49-29.33,20.41s12.72,20.38,29.33,20.38c18.38,0,35.76-8.36,47.56-17.56v-5.48Z"/>
        <path class="cls-3" d="M426.31,48.78l-37.21,136.14h-51.59l-23.44-85.74-23.44,85.74h-51.59l-37.22-136.14h41.36l21.63,79.19,21.6-79.19h55.19l21.68,79.1,21.69-79.1h41.34Z"/>
        <path class="cls-3" d="M570.78,108.74v76.2h-40.14v-8.7c-12.86,6.42-29.2,11.25-45.55,11.25-38.34,0-52.21-20.31-52.21-40.7,0-22.11,18.15-40.77,52.23-40.78,16.35,0,32.7,4.87,45.55,11.32v-8.59c0-22.16-1.03-27.96-25.98-27.96-28.34,0-51,14.13-51.22,14.27l-19.1-28.67s31.33-20.23,68.15-20.23c53.34,0,68.27,24.86,68.27,62.59ZM530.65,146.87c-8.05-5-20.5-10.85-34.65-10.85-13.19,0-22.99,1.87-22.99,10.77,0,5.89,8.69,10.75,22.99,10.75,11.16,0,23.64-3.9,34.65-10.67Z"/>
        <path class="cls-3" d="M597.62,184.93V0h40.14v184.92h-40.14Z"/>
        <path class="cls-3" d="M666.53,184.93V0h40.14v184.92h-40.14Z"/>
        <path class="cls-3" d="M869.62,116.87c0,2.29-.16,4.68-.39,7.09h-106.99c2.82,14.21,13.79,32.04,36.39,32.12,21,0,37.64-17.87,37.76-18.05l27.93,17.05s-21.39,32.42-67.89,32.42c-54.76,0-73.17-41.11-73.17-70.62s18.41-70.62,73.17-70.62c54.78-.01,73.19,41.11,73.19,70.61ZM828.52,94.47s-6.96-18.18-32.03-18.18-29.31,18.18-29.31,18.18h61.34Z"/>
        <path class="cls-3" d="M975.14,172.24s-21.01,15.25-37.76,15.25c-42.07,0-42.07-35.79-42.07-64.53v-40.85h-18v-33.32h18V12.69L935.45.02v48.77h31.85v33.32h-31.85v40.86c0,13.08,0,30.62,10.57,30.62,9.21-.01,20.75-6.09,20.75-6.09l8.37,24.74Z"/>
      </g>
    </g>
  </g>
</svg>