<svg viewBox="0 0 128 128" xmlns="http://www.w3.org/2000/svg"><path d="M93.8 18.5c-6.8-3.6-14.7-5.4-23.5-5.4-10.5 0-19.4 3-26.2 8.8-1.8-.3-3.7-.5-5.6-.5-7 0-12.8 2.2-17.5 6.5C16.3 32.2 14 38 14 45.2c0 3.7.6 7.6 1.7 11.5.6 2 1.3 4 2.1 5.9-1.4 4.5-2.1 9.3-2.1 14.4 0 8.2 2 15 5.8 20.4 3.9 5.4 9.2 8.2 15.7 8.2 2.4 0 4.9-.6 7.6-1.7 1.4 1.3 3.1 2.5 5 3.4 4.4 2.3 9.5 3.4 15.1 3.4 3.3 0 6.5-.4 9.4-1.3 3.2-.9 6-2.3 8.4-4.1 3.4.8 6.8 1.2 10.1 1.2 9.3 0 16.7-3.1 22.2-9.1 5.4-6 8.2-14 8.2-23.7 0-3-.3-5.9-.8-8.8 2.7-5.8 4.1-12.2 4.1-19.1 0-9.8-3-17.3-8.9-22.5-5.8-5-13.2-7.6-22.1-8l-1.6 2.6z" fill="#336791"/><path d="M82.5 30.5c-3.3 0-6.1.7-8.5 2-2.2-3.2-5.4-5.6-9.5-7.2-4.1-1.6-8.7-2.4-13.8-2.4-7.1 0-13.3 1.8-18.4 5.3-5.1 3.5-7.7 8-7.7 13.3 0 2.8.6 5.5 1.8 8.2 1.2 2.6 2.6 4.7 4.4 6.3-.7 2.5-1.1 5.2-1.1 8.2 0 5.8 1.5 10.4 4.6 13.8 3 3.4 6.9 5 11.4 5 2.3 0 4.5-.5 6.8-1.5-.3 2.2-.4 4-.4 5.3 0 4.3 1.2 7.5 3.5 9.8 2.3 2.2 5.6 3.3 9.8 3.3 7.5 0 13.3-2.6 17.4-7.8 4.1-5.2 6.1-12.4 6.1-21.5 0-1.8-.1-3.6-.3-5.4 2.6-3.2 4.4-7.1 5.5-11.6 1.1-4.5 1.6-8.6 1.6-12.2 0-4.7-1.3-8.3-3.8-10.9-2.5-2.5-5.9-3.8-10.1-3.8z" fill="white"/><path d="M78.5 76c0 8-1.6 14.1-4.9 18.3-3.3 4.2-7.7 6.3-13.3 6.3-3 0-5.3-.8-6.8-2.3-1.5-1.5-2.3-3.8-2.3-6.8 0-1.5.2-3.9.5-7.1.4-3.2.5-5.6.5-7.1 0-3.5-.8-6.2-2.3-8.2-1.5-2-3.8-3.2-6.8-3.8.3-.1.8-.1 1.5-.2.7-.1 1.2-.2 1.5-.2 3.5 0 6.4-1.1 8.8-3.2 2.4-2.2 3.5-5 3.5-8.5 0-3.7-1.4-6.8-4.3-9.2-2.9-2.4-6.5-3.6-10.9-3.6-1.2 0-2.7.2-4.5.5 3.8-3 8.7-4.5 14.8-4.5 5.5 0 10 1.4 13.5 4.2 3.5 2.8 5.4 7.5 5.8 14 .1.8.1 1.5.1 2.2v.6c0 4.3-.8 8.2-2.3 11.6-1.5 3.4-2.3 5.3-2.3 5.5-.1.3-.1.6-.1 1.1z" fill="#336791"/><path d="M50.2 53.3c0 2.2-.7 4-2.2 5.3-1.5 1.3-3.4 2-5.8 2-1.1 0-2.3-.1-3.5-.3-1.3-.2-2-.3-2.3-.3-1.8-2-3.3-4.3-4.4-6.8-1.1-2.5-1.7-5-1.7-7.3 0-3.7 1.5-6.8 4.6-9.3.8 0 1.7-.1 2.7-.1 4.1 0 7.3 1.3 9.6 3.8 2 2.2 3 5 3 8.3v4.7z" fill="#336791"/><circle cx="43.5" cy="48" r="3" fill="#336791"/><path d="M92 42.2c0 3.6-.5 7.5-1.5 11.8-1 4.3-2.8 7.8-5.2 10.5l-.5.5c.3 2.2.4 4.2.4 6.2V72c1.8.5 3.2 1.5 4.2 2.8 1.1 1.5 1.6 3.2 1.6 5.2 0 3-.9 6.1-2.7 9.4-1.8 3.2-4.4 5.7-7.8 7.5-1.2.7-2.2 1-3 1-1.8 0-2.7-1.1-2.7-3.4 0-.5.1-1.3.4-2.5.3-1.2.4-2.1.4-2.7 0-2.1-.7-3.7-2-4.7-1.3-1-3.4-1.5-6.2-1.5h-.6c-.2 1.8-.3 3.6-.3 5.3 0 7.8 1.6 13.5 4.7 17.3 3.1 3.7 7.7 5.6 13.8 5.6 8 0 14.2-2.8 18.8-8.3 4.5-5.5 6.8-12.8 6.8-21.8 0-3.3-.3-6.4-1-9.5-.7-3.1-1-4.8-1-5 0-.6.3-1.5 1-2.7.7-1.2 1.3-2.4 2-3.7.6-1.3 1.1-2.7 1.5-4.1.4-1.5.6-2.8.6-4.1 0-3.5-1-6.2-3-8.2-2-2-4.6-3-7.7-3-4.6 0-8.1 2-10.6 5.8z" fill="#336791"/><circle cx="83" cy="48" r="3" fill="#336791"/></svg>