<svg viewBox="0 0 128 128" xmlns="http://www.w3.org/2000/svg"><path d="M64 29.9c-17.1 0-27.8 8.5-32 25.6 6.4-8.5 13.9-11.7 22.4-9.6 4.8 1.2 8.3 4.8 12.2 8.7 6.2 6.4 13.4 13.8 29.4 13.8 17.1 0 27.8-8.5 32-25.6-6.4 8.5-13.9 11.7-22.4 9.6-4.8-1.2-8.3-4.8-12.2-8.7-6.2-6.4-13.4-13.8-29.4-13.8zM32 59.6C14.9 59.6 4.2 68.1 0 85.2c6.4-8.5 13.9-11.7 22.4-9.6 4.8 1.2 8.3 4.8 12.2 8.7 6.2 6.4 13.4 13.8 29.4 13.8 17.1 0 27.8-8.5 32-25.6-6.4 8.5-13.9 11.7-22.4 9.6-4.8-1.2-8.3-4.8-12.2-8.7-6.2-6.4-13.4-13.8-29.4-13.8z" fill="#38bdf8"/></svg>