<svg viewBox="0 0 128 128" xmlns="http://www.w3.org/2000/svg"><rect width="128" height="128" rx="8" fill="#3178c6"/><path d="M82.8 89.2c2.2 3.6 5.5 6.3 9.9 8.1s9.3 2.7 14.6 2.7c5.2 0 9.8-.8 13.8-2.5 4-1.7 7.1-4.1 9.3-7.3 2.2-3.2 3.3-6.9 3.3-11.2 0-3.3-.7-6.1-2-8.5-1.3-2.4-3.2-4.5-5.5-6.2-2.3-1.7-6.1-3.6-11.3-5.6-3.8-1.5-6.6-2.8-8.5-3.9-1.9-1.1-3.2-2.2-4.1-3.5-.8-1.2-1.3-2.7-1.3-4.4 0-2 .5-3.7 1.6-5.1 1.1-1.5 2.6-2.6 4.6-3.3 2-0.8 4.3-1.1 6.9-1.1 2.8 0 5.3.5 7.5 1.4 2.2.9 4 2.4 5.3 4.3 1.3 1.9 2.1 4.3 2.3 7.1h12.3c-.2-5-1.5-9.3-4-12.8-2.5-3.5-5.8-6.2-10-8.1-4.2-1.9-8.9-2.8-14.3-2.8-5.1 0-9.6.9-13.5 2.6-3.9 1.7-7 4.1-9.2 7.2-2.2 3.1-3.3 6.7-3.3 10.7 0 5 1.6 9.2 4.9 12.5 3.3 3.3 8.3 6.1 15.1 8.5 4.5 1.6 7.9 3 10.1 4.3 2.3 1.2 3.9 2.6 4.8 4 .9 1.4 1.4 3.1 1.4 5.1 0 2.1-.6 3.9-1.7 5.5-1.1 1.6-2.8 2.8-4.9 3.6-2.1.8-4.5 1.3-7.3 1.3-3.3 0-6.2-.6-8.8-1.7-2.6-1.1-4.6-2.9-6.1-5.2-1.5-2.3-2.4-5.2-2.5-8.6H78c.1 5.4 1.5 10.1 3.8 13.7zM48.9 37.4H0v11.2h18.4V114h12.1V48.6h18.4V37.4z" fill="#fff" transform="scale(0.75) translate(10,10)"/></svg>