<svg preserveAspectRatio="none" width="100%" height="100%" overflow="visible" style="display: block;" viewBox="0 0 446 446" fill="none" xmlns="http://www.w3.org/2000/svg">
<g id="Frame">
<path id="Vector" d="M344.028 202.198L183.543 367.218C179.083 371.79 171.686 366.493 174.585 360.807L231.711 248.08C232.143 247.23 232.35 246.282 232.312 245.328C232.273 244.375 231.991 243.447 231.491 242.634C230.991 241.821 230.291 241.149 229.457 240.684C228.624 240.219 227.685 239.976 226.73 239.978H106.57C105.473 239.977 104.4 239.652 103.486 239.044C102.573 238.436 101.859 237.572 101.434 236.56C101.01 235.548 100.893 234.433 101.099 233.355C101.306 232.277 101.825 231.284 102.594 230.501L251.446 79.6969C255.757 75.3298 262.931 80.1243 260.533 85.7922L217.847 186.421C217.486 187.274 217.343 188.204 217.431 189.126C217.519 190.048 217.836 190.934 218.352 191.703C218.869 192.473 219.569 193.101 220.389 193.532C221.21 193.962 222.124 194.182 223.051 194.17L339.959 192.721C341.062 192.703 342.145 193.013 343.072 193.612C343.999 194.21 344.728 195.07 345.166 196.083C345.603 197.096 345.731 198.216 345.532 199.301C345.332 200.386 344.816 201.388 344.047 202.18L344.028 202.198Z" fill="var(--fill-0, #0A0A0A)"/>
</g>
</svg>
