<?xml version="1.0" encoding="UTF-8"?>
<svg xmlns="http://www.w3.org/2000/svg" viewBox="0 0 63.49 132.14" aria-label="LaWallet isotypo">
  <g transform="translate(-981.4 -0.97)">
    <path
      fill="#e95052"
      d="M1003.53,83.69c4.44,0,8.06,3.61,8.06,8.06s-3.61,8.06-8.06,8.06v33.3c22.8,0,41.36-18.55,41.36-41.36,0-9.25-3.06-17.81-8.21-24.71-7.55,10.1-19.6,16.65-33.15,16.65Z"
    />
    <path
      fill="#55b68c"
      d="M1036.68,67.04c5.16-6.9,8.21-15.45,8.21-24.71,0-22.8-18.55-41.36-41.36-41.36v33.3c4.44,0,8.06,3.61,8.06,8.06s-3.61,8.06-8.06,8.06c13.55,0,25.6,6.55,33.15,16.65Z"
    />
    <path
      fill="#fdc800"
      d="M1036.68,67.04c-7.55-10.1-19.6-16.65-33.15-16.65h-22.13v33.3h22.13c13.55,0,25.6-6.55,33.15-16.65Z"
    />
  </g>
</svg>
