<svg viewBox="0 0 64 64" fill="none" xmlns="http://www.w3.org/2000/svg">
  <!-- Ostrich body -->
  <ellipse cx="32" cy="44" rx="14" ry="10" fill="#7B3FE4" opacity="0.9"/>
  <!-- Neck -->
  <path d="M36 36C37 28 38 22 36 16" stroke="#7B3FE4" stroke-width="5" stroke-linecap="round" fill="none"/>
  <!-- Head -->
  <circle cx="35" cy="14" r="6" fill="#7B3FE4"/>
  <!-- Eye -->
  <circle cx="37" cy="13" r="1.5" fill="white"/>
  <circle cx="37.5" cy="12.8" r="0.6" fill="#1a1a2e"/>
  <!-- Beak -->
  <path d="M40 15L46 14L40 16Z" fill="#F5A623"/>
  <!-- Legs -->
  <line x1="26" y1="52" x2="22" y2="60" stroke="#7B3FE4" stroke-width="2.5" stroke-linecap="round"/>
  <line x1="38" y1="52" x2="42" y2="60" stroke="#7B3FE4" stroke-width="2.5" stroke-linecap="round"/>
  <!-- Feet -->
  <path d="M19 60L22 60L25 60" stroke="#F5A623" stroke-width="2" stroke-linecap="round"/>
  <path d="M39 60L42 60L45 60" stroke="#F5A623" stroke-width="2" stroke-linecap="round"/>
  <!-- Tail feathers -->
  <path d="M18 42C14 38 12 34 14 30" stroke="#9B6FFF" stroke-width="2" stroke-linecap="round" fill="none"/>
  <path d="M19 44C14 42 10 38 12 34" stroke="#9B6FFF" stroke-width="2" stroke-linecap="round" fill="none"/>
  <path d="M20 40C16 34 16 28 18 24" stroke="#9B6FFF" stroke-width="2" stroke-linecap="round" fill="none"/>
</svg>
